<svg width="12" height="11" viewBox="0 0 12 11" fill="none" xmlns="http://www.w3.org/2000/svg">
<g id="ContactIcon/Phone">
<path id="Vector" d="M10.9997 7.98692V9.49232C11.0003 9.63208 10.9716 9.77041 10.9155 9.89846C10.8594 10.0265 10.7771 10.1414 10.6739 10.2359C10.5707 10.3304 10.4489 10.4023 10.3163 10.4471C10.1836 10.4919 10.0431 10.5085 9.90359 10.4959C8.3564 10.3281 6.87022 9.8005 5.56445 8.9554C4.34961 8.18496 3.31963 7.15703 2.54767 5.94459C1.69793 4.63549 1.16912 3.14504 1.00408 1.59397C0.991516 1.45521 1.00804 1.31536 1.0526 1.18331C1.09716 1.05127 1.16878 0.929936 1.2629 0.827033C1.35703 0.724129 1.47158 0.641913 1.59929 0.585617C1.72699 0.529321 1.86504 0.50018 2.00465 0.500049H3.51304C3.75705 0.497652 3.99361 0.583889 4.17862 0.742686C4.36364 0.901483 4.48448 1.122 4.51863 1.36315C4.5823 1.84491 4.70037 2.31794 4.87059 2.77321C4.93824 2.95281 4.95288 3.14801 4.91278 3.33567C4.87268 3.52332 4.77952 3.69557 4.64433 3.83201L4.00578 4.46929C4.72154 5.72558 5.76379 6.76576 7.02256 7.4801L7.66112 6.84281C7.79782 6.7079 7.97041 6.61492 8.15844 6.5749C8.34647 6.53488 8.54206 6.54949 8.72202 6.617C9.17819 6.78689 9.65216 6.90473 10.1349 6.96826C10.3791 7.00265 10.6022 7.12543 10.7616 7.31325C10.9211 7.50107 11.0058 7.74083 10.9997 7.98692Z" stroke="#ED4763" stroke-linecap="round" stroke-linejoin="round"/>
</g>
</svg>
