<svg width="14" height="11" viewBox="0 0 14 11" fill="none" xmlns="http://www.w3.org/2000/svg">
<g id="ContactIcon/Website">
<g id="Group 14">
<path id="Vector" d="M8.63636 2.5H10.2727C10.6309 2.5 10.9855 2.57163 11.3164 2.7108C11.6473 2.84996 11.9479 3.05394 12.2012 3.31109C12.4545 3.56824 12.6553 3.87351 12.7924 4.20949C12.9295 4.54547 13 4.90557 13 5.26923C13 5.63289 12.9295 5.99299 12.7924 6.32897C12.6553 6.66495 12.4545 6.97023 12.2012 7.22737C11.9479 7.48452 11.6473 7.6885 11.3164 7.82767C10.9855 7.96683 10.6309 8.03846 10.2727 8.03846H8.63636M5.36364 8.03846H3.72727C3.36912 8.03846 3.01448 7.96683 2.68359 7.82767C2.3527 7.6885 2.05205 7.48452 1.7988 7.22737C1.28734 6.70804 1 6.00368 1 5.26923C1 4.53479 1.28734 3.83042 1.7988 3.31109C2.31026 2.79176 3.00396 2.5 3.72727 2.5H5.36364" stroke="#ED4763" stroke-linecap="round" stroke-linejoin="round"/>
<path id="Vector_2" d="M4.69226 5.26921H9.30765" stroke="#ED4763" stroke-linecap="round" stroke-linejoin="round"/>
</g>
</g>
</svg>
