<svg width="192" height="192" viewBox="0 0 192 192" fill="none" xmlns="http://www.w3.org/2000/svg">
<style>
    #blob { fill: #122DAF; }
    @media (prefers-color-scheme: dark) {
      #blob { fill: #FABD37; }
    }
  </style>
<g clip-path="url(#clip0_899_3)">
<path id="blob" d="M154.835 35.4001C170.486 51.0511 182.696 68.2561 187.247 87.7921C191.798 107.217 188.69 129.084 177.812 144.957C166.934 160.941 148.397 170.931 128.861 177.813C109.325 184.584 88.79 188.136 71.03 182.475C53.27 176.814 38.174 161.94 27.629 144.069C17.084 126.309 10.979 105.663 12.089 84.0181C13.199 62.3731 21.413 39.7291 37.508 24.1891C53.492 8.64912 77.246 0.213125 98.669 3.09912C120.092 5.87412 139.184 19.8601 154.835 35.4001Z"/>
<path d="M95.333 51.376C113.253 51.376 126.522 55.216 135.141 62.896C143.845 70.4907 148.197 81.4133 148.197 95.664C148.197 104.965 146.064 113.115 141.797 120.112C137.53 127.024 131.344 132.4 123.237 136.24C115.216 140.08 105.53 142 94.181 142C92.8157 142 90.981 141.957 88.677 141.872C86.4583 141.787 84.1117 141.744 81.637 141.744C79.1623 141.659 76.9437 141.616 74.981 141.616C70.7143 141.616 66.533 141.659 62.437 141.744C58.4263 141.744 55.1837 141.829 52.709 142V139.44C55.3543 139.269 57.317 138.928 58.597 138.416C59.877 137.904 60.7303 136.88 61.157 135.344C61.5837 133.808 61.797 131.504 61.797 128.432V64.944C61.797 61.7867 61.5837 59.4827 61.157 58.032C60.7303 56.496 59.8343 55.472 58.469 54.96C57.189 54.3627 55.269 54.0213 52.709 53.936V51.376C55.1837 51.4613 58.4263 51.5893 62.437 51.76C66.533 51.8453 70.629 51.8453 74.725 51.76C77.8823 51.6747 81.4237 51.5893 85.349 51.504C89.3597 51.4187 92.6877 51.376 95.333 51.376ZM97.253 53.68C93.3277 53.68 90.7677 54.4053 89.573 55.856C88.3783 57.3067 87.781 60.2507 87.781 64.688V128.688C87.781 133.125 88.3783 136.069 89.573 137.52C90.853 138.971 93.4557 139.696 97.381 139.696C103.184 139.696 107.834 138.032 111.333 134.704C114.832 131.291 117.349 126.341 118.885 119.856C120.506 113.371 121.317 105.477 121.317 96.176C121.317 86.6187 120.464 78.7253 118.757 72.496C117.136 66.1813 114.533 61.488 110.949 58.416C107.45 55.2587 102.885 53.68 97.253 53.68Z" fill="white"/>
</g>
<defs>
<clipPath id="clip0_899_3">
<rect width="192" height="192" fill="white"/>
</clipPath>
</defs>
</svg>
