<?xml version="1.0" standalone="no"?>
<!DOCTYPE svg PUBLIC "-//W3C//DTD SVG 20010904//EN"
 "http://www.w3.org/TR/2001/REC-SVG-20010904/DTD/svg10.dtd">
<svg version="1.0" xmlns="http://www.w3.org/2000/svg"
 width="700.000000pt" height="700.000000pt" viewBox="0 0 700.000000 700.000000"
 preserveAspectRatio="xMidYMid meet">
<metadata>
Created by potrace 1.14, written by Peter Selinger 2001-2017
</metadata>
<g transform="translate(0.000000,700.000000) scale(0.100000,-0.100000)"
fill="#000000" stroke="none">
<path d="M3030 6899 c-175 -18 -416 -72 -595 -132 -1121 -381 -1840 -1342
-1986 -2657 -19 -170 -16 -573 5 -750 57 -480 174 -871 391 -1315 444 -906
1126 -1544 1850 -1730 213 -55 338 -69 600 -69 407 0 785 67 1275 226 729 237
1293 555 1665 939 184 191 295 348 411 584 112 229 184 465 231 760 26 158 26
642 0 800 -44 276 -116 521 -223 766 -159 360 -412 740 -744 1114 -140 158
-493 502 -645 629 -603 502 -1142 764 -1711 831 -138 16 -385 18 -524 4z m915
-1802 c626 -92 1017 -319 1253 -730 86 -150 142 -317 178 -532 27 -154 24
-502 -4 -657 -44 -241 -147 -486 -276 -658 -234 -312 -622 -544 -1062 -635
-235 -49 -236 -49 -1196 -49 l-908 -1 0 37 c0 42 -7 38 112 56 122 18 172 59
199 160 17 63 25 2523 9 2682 -14 140 -36 185 -108 222 -30 15 -75 30 -100 33
-117 15 -112 12 -112 53 l0 37 948 0 c848 -1 959 -3 1067 -18z"/>
<path d="M3432 5040 c-84 -12 -148 -44 -177 -89 -57 -85 -56 -52 -53 -1503 3
-1251 4 -1336 21 -1386 39 -114 126 -156 327 -156 574 -1 837 434 875 1449 7
188 -8 520 -31 690 -91 662 -341 974 -799 998 -55 3 -128 2 -163 -3z"/>
</g>
</svg>
