<svg width="128" height="128" xmlns="http://www.w3.org/2000/svg"><g fill="none" fill-rule="evenodd"><path fill="#000" d="M0 0h128v128H0z"/><path d="M26.8 143c7.28 0 12.86-1.9 16.74-5.7 3.88-3.8 5.82-9.7 5.82-17.7V79.64c0-7.04-1.82-12.48-5.46-16.32-3.64-3.84-8.98-5.76-16.02-5.76H9.76V143H26.8zm.84-11.52H22v-62.4h5.64c3.6 0 6.08.92 7.44 2.76 1.36 1.84 2.04 4.44 2.04 7.8v41.16c0 3.68-.72 6.38-2.16 8.1-1.44 1.72-3.88 2.58-7.32 2.58zM73.12 143V91.04h.24l12 36.72h6.12l12.12-36.72h.24V143h12.24V57.56H104.2L88.6 102.8h-.24L72.64 57.56H60.88V143h12.24z" fill="#FFF" fill-rule="nonzero"/></g></svg>
