<svg version="1.0" xmlns="http://www.w3.org/2000/svg" width="933.333" height="933.333" viewBox="0 0 700 700"><path d="M0 350v350h53V315h56.3c34.6 0 59.7.4 65.2 1.1 49.4 6 81.2 34.5 91.5 81.9 3.9 17.9 4.1 26.2 3.8 155-.3 113-.5 125.4-2.1 134-1 5.2-2 10.3-2.3 11.2-.5 1.7 1.5 1.8 33.5 1.8H333V315h64.5L440 437.6c23.4 67.4 42.8 123.1 43.2 123.7.4.6.9.9 1.1.7.3-.3 19.6-55.9 42.9-123.5l42.4-123 32.7-.3 32.7-.2v385h65V0H0v350z"/><path d="M120 539v161H194.7l2.1-4.7c6-13.1 5.7-5.7 5.7-146.8 0-142.8.4-133.5-6.4-148-3.8-8.1-7.8-12.5-15-16.4-9.3-4.9-16.7-6.1-40.3-6.1H120v161zM400 598.8V700h168V599c0-55.6-.3-101-.8-101-.4 0-15.6 45.1-33.8 100.2l-33 100.3h-33.7L434.3 599c-17.9-54.7-32.9-99.9-33.4-100.5-.5-.5-.9 40.7-.9 100.3z"/></svg>
