<svg width="120" height="40" viewBox="0 0 120 40" fill="none" xmlns="http://www.w3.org/2000/svg">
<path d="M79.48 19.7405C79.48 8.65575 70.2408 -0.294774 58.969 0.00748356C48.1025 0.303573 39.5802 9.39598 39.5802 20.1538C39.5802 30.8254 48.327 39.4799 59.1124 39.4799H79.48L119.38 39.4799V20.1538C119.38 9.39598 110.858 0.303574 99.9909 0.0136534C88.7193 -0.294773 79.48 8.65575 79.48 19.7405Z" fill="#2D3282"/>
<path d="M19.7396 39.8996C8.83769 39.844 0.0449482 30.9613 0.100456 20.0594C0.148571 10.6096 0.200963 0.319741 0.200963 0.319741C0.200963 0.319741 14.5395 0.392747 19.9406 0.420247C30.8425 0.475755 39.6353 9.35849 39.5798 20.2604C39.5243 31.1623 30.6415 39.9551 19.7396 39.8996Z" fill="#FF6E75"/>
</svg>
