<svg width="1280" height="394" viewBox="0 0 1280 394" fill="none" xmlns="http://www.w3.org/2000/svg">
<g style="mix-blend-mode:overlay">
<path d="M20.9016 33.2603L19.0984 15.9899" stroke="#1A1A1A" stroke-linecap="round"/>
<path d="M23.8151 81.2054L16.185 66.5446" stroke="#1A1A1A" stroke-linecap="round"/>
<path d="M26.2418 127.216L13.7581 119.034" stroke="#1A1A1A" stroke-linecap="round"/>
<path d="M27.0609 171.907L12.9392 172.843" stroke="#1A1A1A" stroke-linecap="round"/>
<path d="M25.8915 216.81L14.1086 226.44" stroke="#1A1A1A" stroke-linecap="round"/>
<path d="M23.4114 263.249L16.5887 278.501" stroke="#1A1A1A" stroke-linecap="round"/>
<path d="M20.7539 311.468L19.246 328.782" stroke="#1A1A1A" stroke-linecap="round"/>
<path d="M18.7299 360.81L21.2702 377.94" stroke="#1A1A1A" stroke-linecap="round"/>
<path d="M61.3954 33.16L58.6045 16.09" stroke="#1A1A1A" stroke-linecap="round"/>
<path d="M64.24 80.8425L55.7601 66.9076" stroke="#1A1A1A" stroke-linecap="round"/>
<path d="M66.4636 126.655L53.5364 119.595" stroke="#1A1A1A" stroke-linecap="round"/>
<path d="M67.0222 171.354L52.9778 173.397" stroke="#1A1A1A" stroke-linecap="round"/>
<path d="M65.6975 216.469L54.3025 226.781" stroke="#1A1A1A" stroke-linecap="round"/>
<path d="M63.2717 263.157L56.7283 278.593" stroke="#1A1A1A" stroke-linecap="round"/>
<path d="M60.8457 311.481L59.1542 328.769" stroke="#1A1A1A" stroke-linecap="round"/>
<path d="M59.1346 360.734L60.8653 378.016" stroke="#1A1A1A" stroke-linecap="round"/>
<path d="M101.312 33.1802L98.6886 16.0698" stroke="#1A1A1A" stroke-linecap="round"/>
<path d="M104.135 80.9373L95.8647 66.8128" stroke="#1A1A1A" stroke-linecap="round"/>
<path d="M106.381 126.877L93.6192 119.373" stroke="#1A1A1A" stroke-linecap="round"/>
<path d="M107.051 171.722L92.9488 173.028" stroke="#1A1A1A" stroke-linecap="round"/>
<path d="M105.951 216.923L94.049 226.327" stroke="#1A1A1A" stroke-linecap="round"/>
<path d="M103.828 263.554L96.1726 278.196" stroke="#1A1A1A" stroke-linecap="round"/>
<path d="M101.719 311.68L98.2809 328.57" stroke="#1A1A1A" stroke-linecap="round"/>
<path d="M100.313 360.677L99.6871 378.073" stroke="#1A1A1A" stroke-linecap="round"/>
<path d="M140.668 33.2924L139.332 15.9576" stroke="#1A1A1A" stroke-linecap="round"/>
<path d="M143.51 81.4331L136.49 66.317" stroke="#1A1A1A" stroke-linecap="round"/>
<path d="M145.966 127.798L134.034 118.452" stroke="#1A1A1A" stroke-linecap="round"/>
<path d="M147.056 172.942L132.944 171.808" stroke="#1A1A1A" stroke-linecap="round"/>
<path d="M146.493 218.177L133.507 225.073" stroke="#1A1A1A" stroke-linecap="round"/>
<path d="M144.886 264.582L135.114 277.169" stroke="#1A1A1A" stroke-linecap="round"/>
<path d="M143.191 312.356L136.809 327.894" stroke="#1A1A1A" stroke-linecap="round"/>
<path d="M142.105 361.064L137.895 377.686" stroke="#1A1A1A" stroke-linecap="round"/>
<path d="M179.557 33.3142L180.443 15.9358" stroke="#1A1A1A" stroke-linecap="round"/>
<path d="M182.384 82.0715L177.616 65.6784" stroke="#1A1A1A" stroke-linecap="round"/>
<path d="M185.116 129.136L174.884 117.114" stroke="#1A1A1A" stroke-linecap="round"/>
<path d="M186.791 174.801L173.209 169.949" stroke="#1A1A1A" stroke-linecap="round"/>
<path d="M186.974 220.184L173.026 223.066" stroke="#1A1A1A" stroke-linecap="round"/>
<path d="M186.06 266.388L173.94 275.362" stroke="#1A1A1A" stroke-linecap="round"/>
<path d="M184.882 313.827L175.118 326.423" stroke="#1A1A1A" stroke-linecap="round"/>
<path d="M184.139 362.316L175.861 376.434" stroke="#1A1A1A" stroke-linecap="round"/>
<path d="M218.179 33.0377L221.821 16.2123" stroke="#1A1A1A" stroke-linecap="round"/>
<path d="M220.878 82.5138L219.122 65.2361" stroke="#1A1A1A" stroke-linecap="round"/>
<path d="M223.799 130.468L216.201 115.782" stroke="#1A1A1A" stroke-linecap="round"/>
<path d="M226.04 176.903L213.96 167.847" stroke="#1A1A1A" stroke-linecap="round"/>
<path d="M227.019 222.68L212.981 220.57" stroke="#1A1A1A" stroke-linecap="round"/>
<path d="M226.884 268.887L213.116 272.862" stroke="#1A1A1A" stroke-linecap="round"/>
<path d="M226.291 316.151L213.709 324.099" stroke="#1A1A1A" stroke-linecap="round"/>
<path d="M225.888 364.554L214.112 374.196" stroke="#1A1A1A" stroke-linecap="round"/>
<path d="M256.808 32.3939L263.191 16.856" stroke="#1A1A1A" stroke-linecap="round"/>
<path d="M259.247 82.5317L260.753 65.2183" stroke="#1A1A1A" stroke-linecap="round"/>
<path d="M262.171 131.411L257.828 114.839" stroke="#1A1A1A" stroke-linecap="round"/>
<path d="M264.795 178.773L255.205 165.977" stroke="#1A1A1A" stroke-linecap="round"/>
<path d="M266.447 225.201L253.553 218.049" stroke="#1A1A1A" stroke-linecap="round"/>
<path d="M267.04 271.693L252.96 270.057" stroke="#1A1A1A" stroke-linecap="round"/>
<path d="M267.014 319.019L252.986 321.232" stroke="#1A1A1A" stroke-linecap="round"/>
<path d="M266.903 367.488L253.097 371.262" stroke="#1A1A1A" stroke-linecap="round"/>
<path d="M295.682 31.5195L304.318 17.7306" stroke="#1A1A1A" stroke-linecap="round"/>
<path d="M297.774 82.1388L302.226 65.6113" stroke="#1A1A1A" stroke-linecap="round"/>
<path d="M300.517 131.808L299.483 114.442" stroke="#1A1A1A" stroke-linecap="round"/>
<path d="M303.272 180.093L296.728 164.657" stroke="#1A1A1A" stroke-linecap="round"/>
<path d="M305.353 227.314L294.647 215.936" stroke="#1A1A1A" stroke-linecap="round"/>
<path d="M306.496 274.314L293.504 267.436" stroke="#1A1A1A" stroke-linecap="round"/>
<path d="M306.922 321.905L293.078 318.345" stroke="#1A1A1A" stroke-linecap="round"/>
<path d="M307.008 370.539L292.992 368.211" stroke="#1A1A1A" stroke-linecap="round"/>
<path d="M334.894 30.6477L345.106 18.6024" stroke="#1A1A1A" stroke-linecap="round"/>
<path d="M336.638 81.5344L343.362 66.2156" stroke="#1A1A1A" stroke-linecap="round"/>
<path d="M339.102 131.761L340.898 114.489" stroke="#1A1A1A" stroke-linecap="round"/>
<path d="M341.791 180.797L338.21 163.952" stroke="#1A1A1A" stroke-linecap="round"/>
<path d="M344.055 228.758L335.945 214.492" stroke="#1A1A1A" stroke-linecap="round"/>
<path d="M345.519 276.317L334.481 265.433" stroke="#1A1A1A" stroke-linecap="round"/>
<path d="M346.226 324.252L333.774 315.998" stroke="#1A1A1A" stroke-linecap="round"/>
<path d="M346.404 373.066L333.596 365.684" stroke="#1A1A1A" stroke-linecap="round"/>
<path d="M374.447 30.0153L385.553 19.2347" stroke="#1A1A1A" stroke-linecap="round"/>
<path d="M375.941 81.0039L384.059 66.7461" stroke="#1A1A1A" stroke-linecap="round"/>
<path d="M378.161 131.532L381.839 114.718" stroke="#1A1A1A" stroke-linecap="round"/>
<path d="M380.711 181.037L379.288 163.713" stroke="#1A1A1A" stroke-linecap="round"/>
<path d="M382.991 229.514L377.009 213.736" stroke="#1A1A1A" stroke-linecap="round"/>
<path d="M384.577 277.511L375.423 264.239" stroke="#1A1A1A" stroke-linecap="round"/>
<path d="M385.404 325.741L374.596 314.509" stroke="#1A1A1A" stroke-linecap="round"/>
<path d="M385.595 374.698L374.404 364.052" stroke="#1A1A1A" stroke-linecap="round"/>
<path d="M414.351 29.8619L425.649 19.388" stroke="#1A1A1A" stroke-linecap="round"/>
<path d="M415.757 80.8397L424.243 66.9104" stroke="#1A1A1A" stroke-linecap="round"/>
<path d="M417.865 131.425L422.135 114.825" stroke="#1A1A1A" stroke-linecap="round"/>
<path d="M420.313 181.073L419.687 163.677" stroke="#1A1A1A" stroke-linecap="round"/>
<path d="M422.533 229.754L417.467 213.496" stroke="#1A1A1A" stroke-linecap="round"/>
<path d="M424.106 277.963L415.894 263.787" stroke="#1A1A1A" stroke-linecap="round"/>
<path d="M424.933 326.363L415.067 313.887" stroke="#1A1A1A" stroke-linecap="round"/>
<path d="M425.094 375.414L414.906 363.336" stroke="#1A1A1A" stroke-linecap="round"/>
<path d="M454.665 30.3392L465.335 18.9109" stroke="#1A1A1A" stroke-linecap="round"/>
<path d="M456.172 81.1954L463.828 66.5546" stroke="#1A1A1A" stroke-linecap="round"/>
<path d="M458.333 131.586L461.667 114.664" stroke="#1A1A1A" stroke-linecap="round"/>
<path d="M460.749 181.032L459.251 163.718" stroke="#1A1A1A" stroke-linecap="round"/>
<path d="M462.872 229.581L457.128 213.669" stroke="#1A1A1A" stroke-linecap="round"/>
<path d="M464.333 277.755L455.667 263.995" stroke="#1A1A1A" stroke-linecap="round"/>
<path d="M465.072 326.192L454.928 314.058" stroke="#1A1A1A" stroke-linecap="round"/>
<path d="M465.176 375.306L454.824 363.444" stroke="#1A1A1A" stroke-linecap="round"/>
<path d="M495.55 31.3914L504.45 17.8587" stroke="#1A1A1A" stroke-linecap="round"/>
<path d="M497.331 81.9374L502.669 65.8126" stroke="#1A1A1A" stroke-linecap="round"/>
<path d="M499.653 131.821L500.347 114.429" stroke="#1A1A1A" stroke-linecap="round"/>
<path d="M502.04 180.711L497.96 164.039" stroke="#1A1A1A" stroke-linecap="round"/>
<path d="M503.974 228.826L496.026 214.424" stroke="#1A1A1A" stroke-linecap="round"/>
<path d="M505.202 276.772L494.798 264.978" stroke="#1A1A1A" stroke-linecap="round"/>
<path d="M505.767 325.162L494.233 315.088" stroke="#1A1A1A" stroke-linecap="round"/>
<path d="M505.804 374.347L494.196 364.403" stroke="#1A1A1A" stroke-linecap="round"/>
<path d="M537.23 32.6353L542.77 16.6147" stroke="#1A1A1A" stroke-linecap="round"/>
<path d="M539.356 82.5452L540.644 65.2049" stroke="#1A1A1A" stroke-linecap="round"/>
<path d="M541.783 131.55L538.216 114.7" stroke="#1A1A1A" stroke-linecap="round"/>
<path d="M543.968 179.581L536.031 165.169" stroke="#1A1A1A" stroke-linecap="round"/>
<path d="M545.503 227.093L534.497 216.157" stroke="#1A1A1A" stroke-linecap="round"/>
<path d="M546.327 274.761L533.673 266.988" stroke="#1A1A1A" stroke-linecap="round"/>
<path d="M546.639 323.122L533.361 317.128" stroke="#1A1A1A" stroke-linecap="round"/>
<path d="M546.624 372.423L533.377 366.327" stroke="#1A1A1A" stroke-linecap="round"/>
<path d="M579.777 33.3269L580.223 15.9231" stroke="#1A1A1A" stroke-linecap="round"/>
<path d="M582.096 82.1901L577.904 65.56" stroke="#1A1A1A" stroke-linecap="round"/>
<path d="M584.313 130.024L575.687 116.226" stroke="#1A1A1A" stroke-linecap="round"/>
<path d="M585.929 177.118L574.071 167.632" stroke="#1A1A1A" stroke-linecap="round"/>
<path d="M586.773 224.127L573.227 219.122" stroke="#1A1A1A" stroke-linecap="round"/>
<path d="M587.041 271.681L572.959 270.069" stroke="#1A1A1A" stroke-linecap="round"/>
<path d="M587.071 320.141L572.929 320.11" stroke="#1A1A1A" stroke-linecap="round"/>
<path d="M587.068 369.618L572.932 369.132" stroke="#1A1A1A" stroke-linecap="round"/>
<path d="M622.829 32.6041L617.171 16.6459" stroke="#1A1A1A" stroke-linecap="round"/>
<path d="M624.894 80.1587L615.106 67.5914" stroke="#1A1A1A" stroke-linecap="round"/>
<path d="M626.382 126.874L613.618 119.376" stroke="#1A1A1A" stroke-linecap="round"/>
<path d="M627.026 173.358L612.974 171.392" stroke="#1A1A1A" stroke-linecap="round"/>
<path d="M626.986 220.282L613.013 222.967" stroke="#1A1A1A" stroke-linecap="round"/>
<path d="M626.689 268.052L613.311 273.698" stroke="#1A1A1A" stroke-linecap="round"/>
<path d="M626.527 316.775L613.473 323.475" stroke="#1A1A1A" stroke-linecap="round"/>
<path d="M626.658 366.443L613.342 372.307" stroke="#1A1A1A" stroke-linecap="round"/>
<path d="M665.536 30.0413L654.464 19.2086" stroke="#1A1A1A" stroke-linecap="round"/>
<path d="M666.749 76.4716L653.251 71.2785" stroke="#1A1A1A" stroke-linecap="round"/>
<path d="M667.059 122.617L652.941 123.633" stroke="#1A1A1A" stroke-linecap="round"/>
<path d="M666.575 169.172L653.425 175.578" stroke="#1A1A1A" stroke-linecap="round"/>
<path d="M665.753 216.562L654.247 226.687" stroke="#1A1A1A" stroke-linecap="round"/>
<path d="M665.099 264.844L654.901 276.906" stroke="#1A1A1A" stroke-linecap="round"/>
<path d="M664.941 313.897L655.059 326.353" stroke="#1A1A1A" stroke-linecap="round"/>
<path d="M665.342 363.67L654.659 375.08" stroke="#1A1A1A" stroke-linecap="round"/>
<path d="M706.968 26.1034L693.032 23.1465" stroke="#1A1A1A" stroke-linecap="round"/>
<path d="M706.922 72.0969L693.078 75.6532" stroke="#1A1A1A" stroke-linecap="round"/>
<path d="M705.998 118.514L694.002 127.736" stroke="#1A1A1A" stroke-linecap="round"/>
<path d="M704.646 165.812L695.354 178.938" stroke="#1A1A1A" stroke-linecap="round"/>
<path d="M703.427 214.009L696.573 229.241" stroke="#1A1A1A" stroke-linecap="round"/>
<path d="M702.752 262.855L697.248 278.895" stroke="#1A1A1A" stroke-linecap="round"/>
<path d="M702.804 312.133L697.195 328.117" stroke="#1A1A1A" stroke-linecap="round"/>
<path d="M703.558 361.851L696.442 376.899" stroke="#1A1A1A" stroke-linecap="round"/>
<path d="M746.731 21.9597L733.268 27.2903" stroke="#1A1A1A" stroke-linecap="round"/>
<path d="M745.477 68.3677L734.523 79.3822" stroke="#1A1A1A" stroke-linecap="round"/>
<path d="M743.711 115.714L736.289 130.536" stroke="#1A1A1A" stroke-linecap="round"/>
<path d="M742.018 164.031L737.982 180.719" stroke="#1A1A1A" stroke-linecap="round"/>
<path d="M740.849 212.982L739.152 230.268" stroke="#1A1A1A" stroke-linecap="round"/>
<path d="M740.429 262.185L739.571 279.565" stroke="#1A1A1A" stroke-linecap="round"/>
<path d="M740.812 311.476L739.189 328.774" stroke="#1A1A1A" stroke-linecap="round"/>
<path d="M741.929 360.999L738.071 377.751" stroke="#1A1A1A" stroke-linecap="round"/>
<path d="M785.204 18.7302L774.796 30.5198" stroke="#1A1A1A" stroke-linecap="round"/>
<path d="M783.184 66.1011L776.816 81.649" stroke="#1A1A1A" stroke-linecap="round"/>
<path d="M781.15 114.535L778.85 131.715" stroke="#1A1A1A" stroke-linecap="round"/>
<path d="M779.593 163.683L780.406 181.067" stroke="#1A1A1A" stroke-linecap="round"/>
<path d="M778.76 213.054L781.24 230.196" stroke="#1A1A1A" stroke-linecap="round"/>
<path d="M778.716 262.313L781.284 279.436" stroke="#1A1A1A" stroke-linecap="round"/>
<path d="M779.458 311.444L780.543 328.806" stroke="#1A1A1A" stroke-linecap="round"/>
<path d="M780.916 360.742L779.084 378.008" stroke="#1A1A1A" stroke-linecap="round"/>
<path d="M823.205 16.8644L816.795 32.3856" stroke="#1A1A1A" stroke-linecap="round"/>
<path d="M820.944 65.2467L819.056 82.5034" stroke="#1A1A1A" stroke-linecap="round"/>
<path d="M819.079 114.493L820.921 131.757" stroke="#1A1A1A" stroke-linecap="round"/>
<path d="M817.902 164.061L822.098 180.689" stroke="#1A1A1A" stroke-linecap="round"/>
<path d="M817.487 213.487L822.513 229.763" stroke="#1A1A1A" stroke-linecap="round"/>
<path d="M817.832 262.588L822.168 279.162" stroke="#1A1A1A" stroke-linecap="round"/>
<path d="M818.934 311.518L821.066 328.732" stroke="#1A1A1A" stroke-linecap="round"/>
<path d="M820.725 360.715L819.275 378.035" stroke="#1A1A1A" stroke-linecap="round"/>
<path d="M861.483 16.1123L858.517 33.1377" stroke="#1A1A1A" stroke-linecap="round"/>
<path d="M859.334 65.2075L860.666 82.5425" stroke="#1A1A1A" stroke-linecap="round"/>
<path d="M857.824 114.841L862.176 131.409" stroke="#1A1A1A" stroke-linecap="round"/>
<path d="M857.063 164.455L862.937 180.295" stroke="#1A1A1A" stroke-linecap="round"/>
<path d="M857.048 213.714L862.952 229.536" stroke="#1A1A1A" stroke-linecap="round"/>
<path d="M857.778 262.61L862.221 279.14" stroke="#1A1A1A" stroke-linecap="round"/>
<path d="M859.262 311.466L860.738 328.784" stroke="#1A1A1A" stroke-linecap="round"/>
<path d="M861.378 360.836L858.622 377.914" stroke="#1A1A1A" stroke-linecap="round"/>
<path d="M900.442 15.9358L899.559 33.3143" stroke="#1A1A1A" stroke-linecap="round"/>
<path d="M898.55 65.3539L901.45 82.3961" stroke="#1A1A1A" stroke-linecap="round"/>
<path d="M897.407 115.025L902.593 131.225" stroke="#1A1A1A" stroke-linecap="round"/>
<path d="M897.028 164.475L902.972 180.275" stroke="#1A1A1A" stroke-linecap="round"/>
<path d="M897.396 213.531L902.604 229.719" stroke="#1A1A1A" stroke-linecap="round"/>
<path d="M898.53 262.359L901.47 279.391" stroke="#1A1A1A" stroke-linecap="round"/>
<path d="M900.402 311.433L899.599 328.817" stroke="#1A1A1A" stroke-linecap="round"/>
<path d="M902.761 361.36L897.239 377.39" stroke="#1A1A1A" stroke-linecap="round"/>
<path d="M940.192 15.922L939.808 33.3281" stroke="#1A1A1A" stroke-linecap="round"/>
<path d="M938.587 65.3444L941.413 82.4056" stroke="#1A1A1A" stroke-linecap="round"/>
<path d="M937.779 114.859L942.221 131.391" stroke="#1A1A1A" stroke-linecap="round"/>
<path d="M937.763 164.116L942.237 180.634" stroke="#1A1A1A" stroke-linecap="round"/>
<path d="M938.527 213.11L941.472 230.14" stroke="#1A1A1A" stroke-linecap="round"/>
<path d="M940.065 262.169L939.935 279.581" stroke="#1A1A1A" stroke-linecap="round"/>
<path d="M942.225 311.861L937.775 328.389" stroke="#1A1A1A" stroke-linecap="round"/>
<path d="M944.569 362.73L935.431 376.02" stroke="#1A1A1A" stroke-linecap="round"/>
<path d="M980.696 15.9609L979.304 33.289" stroke="#1A1A1A" stroke-linecap="round"/>
<path d="M979.39 65.2013L980.61 82.5488" stroke="#1A1A1A" stroke-linecap="round"/>
<path d="M978.907 114.523L981.093 131.727" stroke="#1A1A1A" stroke-linecap="round"/>
<path d="M979.255 163.717L980.745 181.033" stroke="#1A1A1A" stroke-linecap="round"/>
<path d="M980.4 212.933L979.6 230.317" stroke="#1A1A1A" stroke-linecap="round"/>
<path d="M982.225 262.611L977.775 279.139" stroke="#1A1A1A" stroke-linecap="round"/>
<path d="M984.386 313.296L975.614 326.954" stroke="#1A1A1A" stroke-linecap="round"/>
<path d="M986.247 365.296L973.753 373.454" stroke="#1A1A1A" stroke-linecap="round"/>
<path d="M1021.83 16.214L1018.17 33.036" stroke="#1A1A1A" stroke-linecap="round"/>
<path d="M1020.85 65.2324L1019.15 82.5177" stroke="#1A1A1A" stroke-linecap="round"/>
<path d="M1020.7 114.462L1019.3 131.788" stroke="#1A1A1A" stroke-linecap="round"/>
<path d="M1021.37 163.834L1018.63 180.915" stroke="#1A1A1A" stroke-linecap="round"/>
<path d="M1022.76 213.609L1017.24 229.641" stroke="#1A1A1A" stroke-linecap="round"/>
<path d="M1024.57 264.23L1015.43 277.52" stroke="#1A1A1A" stroke-linecap="round"/>
<path d="M1026.25 316.046L1013.75 324.204" stroke="#1A1A1A" stroke-linecap="round"/>
<path d="M1027.06 368.948L1012.94 369.802" stroke="#1A1A1A" stroke-linecap="round"/>
<path d="M1063.35 16.9562L1056.65 32.2937" stroke="#1A1A1A" stroke-linecap="round"/>
<path d="M1062.74 65.849L1057.26 81.9009" stroke="#1A1A1A" stroke-linecap="round"/>
<path d="M1062.88 115.175L1057.12 131.075" stroke="#1A1A1A" stroke-linecap="round"/>
<path d="M1063.74 164.985L1056.26 179.765" stroke="#1A1A1A" stroke-linecap="round"/>
<path d="M1065.07 215.557L1054.93 227.693" stroke="#1A1A1A" stroke-linecap="round"/>
<path d="M1066.4 267.182L1053.6 274.568" stroke="#1A1A1A" stroke-linecap="round"/>
<path d="M1067.07 319.84L1052.93 320.41" stroke="#1A1A1A" stroke-linecap="round"/>
<path d="M1066.45 372.942L1053.55 365.809" stroke="#1A1A1A" stroke-linecap="round"/>
<path d="M1104.92 18.371L1095.08 30.8791" stroke="#1A1A1A" stroke-linecap="round"/>
<path d="M1104.65 67.3212L1095.35 80.4287" stroke="#1A1A1A" stroke-linecap="round"/>
<path d="M1104.98 116.942L1095.02 129.308" stroke="#1A1A1A" stroke-linecap="round"/>
<path d="M1105.77 167.341L1094.23 177.409" stroke="#1A1A1A" stroke-linecap="round"/>
<path d="M1106.66 218.698L1093.34 224.552" stroke="#1A1A1A" stroke-linecap="round"/>
<path d="M1107.07 271.003L1092.93 270.747" stroke="#1A1A1A" stroke-linecap="round"/>
<path d="M1106.41 323.803L1093.59 316.447" stroke="#1A1A1A" stroke-linecap="round"/>
<path d="M1104.41 376.184L1095.59 362.566" stroke="#1A1A1A" stroke-linecap="round"/>
<path d="M1146.19 20.407L1133.81 28.8431" stroke="#1A1A1A" stroke-linecap="round"/>
<path d="M1146.16 69.6031L1133.84 78.1468" stroke="#1A1A1A" stroke-linecap="round"/>
<path d="M1146.48 119.635L1133.52 126.615" stroke="#1A1A1A" stroke-linecap="round"/>
<path d="M1146.92 170.576L1133.08 174.174" stroke="#1A1A1A" stroke-linecap="round"/>
<path d="M1147.04 222.402L1132.96 220.848" stroke="#1A1A1A" stroke-linecap="round"/>
<path d="M1146.33 274.763L1133.67 266.986" stroke="#1A1A1A" stroke-linecap="round"/>
<path d="M1144.44 326.899L1135.56 313.351" stroke="#1A1A1A" stroke-linecap="round"/>
<path d="M1141.54 377.872L1138.46 360.878" stroke="#1A1A1A" stroke-linecap="round"/>
<path d="M1186.91 22.7961L1173.09 26.4539" stroke="#1A1A1A" stroke-linecap="round"/>
<path d="M1186.96 72.347L1173.04 75.403" stroke="#1A1A1A" stroke-linecap="round"/>
<path d="M1187.06 122.758L1172.94 123.492" stroke="#1A1A1A" stroke-linecap="round"/>
<path d="M1186.95 173.995L1173.05 170.755" stroke="#1A1A1A" stroke-linecap="round"/>
<path d="M1186.2 225.805L1173.8 217.445" stroke="#1A1A1A" stroke-linecap="round"/>
<path d="M1184.5 277.593L1175.5 264.157" stroke="#1A1A1A" stroke-linecap="round"/>
<path d="M1181.84 328.531L1178.16 311.719" stroke="#1A1A1A" stroke-linecap="round"/>
<path d="M1178.7 377.933L1181.3 360.817" stroke="#1A1A1A" stroke-linecap="round"/>
<path d="M1227.06 25.1741L1212.94 24.0759" stroke="#1A1A1A" stroke-linecap="round"/>
<path d="M1227 75.0676L1213 72.6825" stroke="#1A1A1A" stroke-linecap="round"/>
<path d="M1226.75 125.701L1213.25 120.549" stroke="#1A1A1A" stroke-linecap="round"/>
<path d="M1226.04 176.91L1213.96 167.84" stroke="#1A1A1A" stroke-linecap="round"/>
<path d="M1224.56 228.275L1215.44 214.975" stroke="#1A1A1A" stroke-linecap="round"/>
<path d="M1222.25 279.131L1217.75 262.619" stroke="#1A1A1A" stroke-linecap="round"/>
<path d="M1219.35 328.795L1220.65 311.455" stroke="#1A1A1A" stroke-linecap="round"/>
<path d="M1216.49 376.933L1223.51 361.816" stroke="#1A1A1A" stroke-linecap="round"/>
<path d="M1266.75 27.2219L1253.25 22.0281" stroke="#1A1A1A" stroke-linecap="round"/>
<path d="M1266.48 77.3611L1253.52 70.389" stroke="#1A1A1A" stroke-linecap="round"/>
<path d="M1265.84 128.028L1254.16 118.223" stroke="#1A1A1A" stroke-linecap="round"/>
<path d="M1264.63 178.957L1255.37 165.793" stroke="#1A1A1A" stroke-linecap="round"/>
<path d="M1262.7 229.67L1257.3 213.58" stroke="#1A1A1A" stroke-linecap="round"/>
<path d="M1260.17 279.579L1259.83 262.171" stroke="#1A1A1A" stroke-linecap="round"/>
<path d="M1257.44 328.242L1262.56 312.008" stroke="#1A1A1A" stroke-linecap="round"/>
<path d="M1255.08 375.63L1264.92 363.12" stroke="#1A1A1A" stroke-linecap="round"/>
</g>
</svg>
